HIERARCHY
ROOT Hips
{
 OFFSET 0.000000 0.000000 0.000000
 CHANNELS 6 Xposition Yposition Zposition Yrotation Xrotation Zrotation
 JOINT Chest
 {
  OFFSET 0.000000 11.395451 -0.039534
  CHANNELS 3 Yrotation Xrotation Zrotation
  JOINT Chest2
  {
   OFFSET 0.000000 9.398669 0.071813
   CHANNELS 3 Yrotation Xrotation Zrotation
   JOINT Chest3
   {
    OFFSET 0.000000 8.489801 0.000000
    CHANNELS 3 Yrotation Xrotation Zrotation
    JOINT Chest4
    {
     OFFSET 0.000000 8.489801 0.000000
     CHANNELS 3 Yrotation Xrotation Zrotation
     JOINT Neck
     {
      OFFSET 0.000000 12.404889 0.000000
      CHANNELS 3 Yrotation Xrotation Zrotation
      JOINT Head
      {
       OFFSET 0.000000 8.903270 0.092239
       CHANNELS 3 Yrotation Xrotation Zrotation
       End Site
       {
        OFFSET 0.000000 17.592497 0.007158
       }
      }
     }
     JOINT RightCollar
     {
      OFFSET -3.196775 6.966722 0.000000
      CHANNELS 3 Yrotation Xrotation Zrotation
      JOINT RightShoulder
      {
       OFFSET -15.955896 0.000000 0.000000
       CHANNELS 3 Yrotation Xrotation Zrotation
       JOINT RightElbow
       {
        OFFSET -24.792472 0.000000 0.000000
        CHANNELS 3 Yrotation Xrotation Zrotation
        JOINT RightWrist
        {
         OFFSET -20.900115 0.000000 0.025002
         CHANNELS 3 Yrotation Xrotation Zrotation
         End Site
         {
          OFFSET -16.056692 0.000000 0.000000
         }
        }
       }
      }
     }
     JOINT LeftCollar
     {
      OFFSET 3.196775 6.966722 0.000000
      CHANNELS 3 Yrotation Xrotation Zrotation
      JOINT LeftShoulder
      {
       OFFSET 15.955896 0.000000 0.000000
       CHANNELS 3 Yrotation Xrotation Zrotation
       JOINT LeftElbow
       {
        OFFSET 24.792472 0.000000 0.000000
        CHANNELS 3 Yrotation Xrotation Zrotation
        JOINT LeftWrist
        {
         OFFSET 20.900115 0.000000 0.025002
         CHANNELS 3 Yrotation Xrotation Zrotation
         End Site
         {
          OFFSET 16.056692 0.000000 0.000000
         }
        }
       }
      }
     }
    }
   }
  }
 }
 JOINT RightHip
 {
  OFFSET -9.568995 0.193718 0.019767
  CHANNELS 3 Yrotation Xrotation Zrotation
  JOINT RightKnee
  {
   OFFSET 0.000000 -56.649296 0.015402
   CHANNELS 3 Yrotation Xrotation Zrotation
   JOINT RightAnkle
   {
    OFFSET 0.000000 -41.365147 0.021264
    CHANNELS 3 Yrotation Xrotation Zrotation
    JOINT RightToe
    {
     OFFSET 0.000000 -7.465940 17.672538
     CHANNELS 3 Yrotation Xrotation Zrotation
     End Site
     {
      OFFSET 0.000000 -1.736315 7.837145
     }
    }
   }
  }
 }
 JOINT LeftHip
 {
  OFFSET 9.568995 0.193718 0.019767
  CHANNELS 3 Yrotation Xrotation Zrotation
  JOINT LeftKnee
  {
   OFFSET 0.000000 -56.649296 0.015402
   CHANNELS 3 Yrotation Xrotation Zrotation
   JOINT LeftAnkle
   {
    OFFSET 0.000000 -41.365147 0.021264
    CHANNELS 3 Yrotation Xrotation Zrotation
    JOINT LeftToe
    {
     OFFSET 0.000000 -7.465940 17.672538
     CHANNELS 3 Yrotation Xrotation Zrotation
     End Site
     {
      OFFSET 0.000000 -1.736315 7.837145
     }
    }
   }
  }
 }
}
MOTION
Frames: 8
Frame Time: 0.016667
1.041224 106.341721 55.351328 -113.902105 -6.257219 0.216582 -2.647328 4.682778 -0.419068 -1.171346 2.083598 -0.159356 -1.171346 2.083598 -0.159356 -0.877869 1.563011 -0.115509 2.591807 17.810935 -0.838623 5.058792 -3.030157 -2.417881 2.613415 2.456171 8.699140 4.314646 -12.735766 76.676243 -1.357500 12.040162 -5.523169 0.923199 8.421934 3.829987 6.324983 6.726148 -6.862733 -0.978690 -19.483644 -79.126683 2.654415 13.756669 4.524691 0.930523 0.816826 -8.727091 3.980166 13.712890 0.659416 -1.009383 3.005034 -0.579881 -4.387736 -9.733335 4.400014 0.000000 0.000000 0.000000 -7.652691 10.406196 -2.876718 -1.525992 2.954022 0.068538 -3.895866 -8.647085 0.081641 0.000000 0.000000 0.000000
1.149488 106.342620 55.366622 -113.926232 -6.277054 0.191589 -2.596258 4.654763 -0.382297 -1.149074 2.070897 -0.143702 -1.149074 2.070897 -0.143702 -0.861225 1.553450 -0.103870 2.572813 17.849917 -0.847033 5.025167 -2.958234 -2.425242 2.521095 2.544442 8.642732 4.358511 -12.690009 76.696907 -1.349610 12.017639 -5.536608 0.946840 8.429257 3.806951 6.244436 6.793907 -6.893322 -0.916741 -19.467167 -79.255056 2.703882 13.742246 4.573550 0.928877 0.818710 -8.693707 4.041292 13.640692 0.708838 -1.107065 3.076163 -0.604477 -4.284430 -9.778514 4.380137 0.000000 -0.000000 0.000000 -7.527800 10.315699 -2.855894 -1.708310 3.034559 0.154857 -3.773839 -8.594627 0.008000 0.000000 0.000000 0.000000
1.257751 106.343519 55.381915 -113.950351 -6.296899 0.166603 -2.545232 4.626709 -0.345522 -1.126817 2.058186 -0.128040 -1.126817 2.058186 -0.128040 -0.844591 1.543882 -0.092224 2.553803 17.888896 -0.855422 4.991528 -2.886311 -2.432575 2.428698 2.632639 8.586179 4.402396 -12.644276 76.717597 -1.341719 11.995113 -5.550044 0.970461 8.436585 3.783900 6.163841 6.861618 -6.924027 -0.854797 -19.450538 -79.383388 2.753266 13.727709 4.622433 0.927193 0.820577 -8.660324 4.102295 13.568439 0.758213 -1.204769 3.147239 -0.629309 -4.181107 -9.823691 4.360260 0.000000 0.000000 0.000000 -7.403011 10.225114 -2.835189 -1.890687 3.115294 0.240662 -3.651920 -8.541988 -0.065538 0.000000 0.000000 0.000000
1.362049 106.344928 55.398771 -113.967964 -6.320368 0.147584 -2.499604 4.602585 -0.313748 -1.106898 2.047260 -0.114517 -1.106898 2.047260 -0.114517 -0.829702 1.535659 -0.082170 2.536101 17.925671 -0.864513 4.960624 -2.818383 -2.441752 2.343313 2.717545 8.532797 4.441580 -12.599415 76.737124 -1.338326 11.974480 -5.566684 0.993193 8.442444 3.761517 6.090045 6.926145 -6.955670 -0.800274 -19.433682 -79.500786 2.800441 13.715493 4.669469 0.925736 0.823185 -8.628720 4.157473 13.503494 0.802584 -1.279764 3.216300 -0.655199 -4.104074 -9.863514 4.342979 0.000000 0.000000 0.000000 -7.294430 10.146945 -2.820218 -2.055324 3.193750 0.316940 -3.540293 -8.500091 -0.129395 0.000000 -0.000000 0.000000
1.460414 106.346956 55.418404 -113.976714 -6.348728 0.138569 -2.461600 4.583943 -0.289659 -1.090280 2.038823 -0.104297 -1.090280 2.038823 -0.104297 -0.817275 1.529309 -0.074576 2.519846 17.959285 -0.875096 4.933000 -2.756187 -2.454313 2.267722 2.798409 8.483915 4.476971 -12.556223 76.755240 -1.342499 11.955306 -5.590393 1.014944 8.445673 3.739287 6.025924 6.985493 -6.988485 -0.755024 -19.414711 -79.602611 2.842068 13.709811 4.712549 0.924607 0.827116 -8.599557 4.204976 13.447881 0.840555 -1.306732 3.285248 -0.686066 -4.080923 -9.897003 4.330161 0.000000 -0.000000 0.000000 -7.209722 10.087443 -2.815057 -2.193651 3.270228 0.379800 -3.443001 -8.476626 -0.178139 0.000000 0.000000 0.000000
1.554815 106.349494 55.439599 -113.978965 -6.380700 0.135514 -2.428965 4.569260 -0.270563 -1.075990 2.032178 -0.096217 -1.075990 2.032178 -0.096217 -0.806588 1.524308 -0.068576 2.504911 17.990703 -0.886386 4.908121 -2.697976 -2.468720 2.199164 2.876021 8.438275 4.507662 -12.513896 76.772179 -1.351176 11.938003 -5.617287 1.035808 8.447416 3.717726 5.968623 7.041688 -7.022178 -0.717206 -19.395586 -79.693515 2.881531 13.706483 4.753783 0.923727 0.831790 -8.572171 4.246722 13.399607 0.873548 -1.310983 3.352253 -0.717721 -4.084076 -9.925135 4.319921 0.000000 -0.000000 0.000000 -7.141123 10.040447 -2.815528 -2.314189 3.344302 0.433397 -3.355910 -8.463995 -0.217288 0.000000 -0.000000 0.000000
1.647194 106.352716 55.460271 -113.975291 -6.416070 0.132247 -2.400321 4.557897 -0.253401 -1.063450 2.027022 -0.088938 -1.063450 2.027022 -0.088938 -0.797209 1.520427 -0.063168 2.492223 18.020608 -0.896737 4.887121 -2.642520 -2.482223 2.136426 2.949497 8.395347 4.526209 -12.470858 76.787463 -1.359650 11.925748 -5.638956 1.055200 8.449654 3.699065 5.916407 7.097643 -7.056755 -0.688680 -19.382028 -79.776560 2.926762 13.695333 4.797617 0.923092 0.836232 -8.546349 4.282690 13.360025 0.900851 -1.345713 3.409711 -0.738930 -4.057091 -9.945511 4.309239 0.000000 0.000000 0.000000 -7.081580 9.999858 -2.814835 -2.424783 3.412351 0.480860 -3.276929 -8.450220 -0.253698 0.000000 0.000000 0.000000
1.738165 106.356942 55.479283 -113.966077 -6.456918 0.126414 -2.375621 4.551147 -0.237201 -1.052646 2.023927 -0.082021 -1.052646 2.023927 -0.082021 -0.789131 1.518092 -0.058023 2.482449 18.048416 -0.905478 4.871027 -2.590909 -2.493829 2.079310 3.017918 8.355034 4.527525 -12.427164 76.799883 -1.364150 11.920023 -5.649572 1.072872 8.452629 3.684652 5.869209 7.154837 -7.092502 -0.672823 -19.378019 -79.852161 2.984116 13.671470 4.847789 0.922663 0.840052 -8.522950 4.313463 13.332983 0.920833 -1.447482 3.451898 -0.742258 -3.962486 -9.955303 4.296482 0.000000 0.000000 0.000000 -7.028667 9.966309 -2.810231 -2.527753 3.472310 0.522658 -3.205041 -8.431041 -0.290223 0.000000 0.000000 0.000000
